<?xml version="1.0" encoding="utf-8"?>
<!-- Generator: Adobe Illustrator 19.0.0, SVG Export Plug-In . SVG Version: 6.00 Build 0)  -->
<svg version="1.1" id="Layer_1" xmlns="http://www.w3.org/2000/svg" xmlns:xlink="http://www.w3.org/1999/xlink" x="0px" y="0px"
	 viewBox="0 0 1285 264.5" style="enable-background:new 0 0 1285 264.5;" xml:space="preserve">
<style type="text/css">
	.st0{fill:#FFFFFF;}
</style>
<path id="XMLID_545_" class="st0" d="M341.6,80.2c2.2-10.6,1.9-21.9-1.5-33C329.3,12,292-7.8,256.8,2.9
	c-27.2,8.3-45.2,32.4-47.1,59.2c-12.5-5.6-26.9-6.8-40.9-2.5c-30.9,9.4-48.4,42.2-38.9,73.1s42.2,48.4,73.1,38.9
	c22.1-6.7,37.3-25.4,40.7-46.7c15.3,8.6,33.9,11.1,52,5.6c0.5-0.2,1-0.3,1.5-0.5c0.2,4.1,0.8,8.2,2.1,12.2
	c7.8,25.4,34.6,39.7,60.1,32c25.4-7.8,39.7-34.6,32-60.1C384.6,92.2,363.6,78.5,341.6,80.2z"/>
<path id="XMLID_541_" class="st0" d="M1105.8,168.4c2.2-10.6,1.9-21.9-1.5-33c-10.8-35.2-48-55.1-83.3-44.3
	c-27.2,8.3-45.2,32.4-47.1,59.2c-12.5-5.6-26.9-6.8-40.9-2.5c-30.9,9.4-48.4,42.2-38.9,73.1s42.2,48.4,73.1,38.9
	c22.1-6.7,37.3-25.4,40.7-46.7c15.3,8.6,33.9,11.1,52,5.6c0.5-0.2,1-0.3,1.5-0.5c0.2,4.1,0.8,8.2,2.1,12.2
	c7.8,25.4,34.6,39.7,60.1,32s39.7-34.6,32-60.1C1148.9,180.3,1127.8,166.7,1105.8,168.4z"/>
<path id="XMLID_262_" class="st0" d="M687.4,133.9c-7.1,0-13.9,1.9-19.7,5.1c-1.2-5.2-3.2-10.1-5.7-14.6
	c11.6-2.5,20.3-12.8,20.3-25.1c0-14.2-11.5-25.7-25.7-25.7c-13.6,0-24.8,10.6-25.6,24c-6.4-2.4-13.4-3.7-20.7-3.7
	c-32.6,0-59,26.5-59,59.1s26.4,59.1,59,59.1c16.8,0,31.9-7,42.6-18.2c7,11.6,19.8,19.4,34.4,19.4c22.1,0,40-17.7,40-39.6
	C727.4,151.7,709.5,133.9,687.4,133.9z"/>
</svg>
