<?xml version="1.0" encoding="utf-8"?>
<!-- Generator: Adobe Illustrator 19.0.0, SVG Export Plug-In . SVG Version: 6.00 Build 0)  -->
<svg version="1.1" id="Layer_1" xmlns="http://www.w3.org/2000/svg" xmlns:xlink="http://www.w3.org/1999/xlink" x="0px" y="0px"
	 viewBox="0 0 132.6 139.6" style="enable-background:new 0 0 132.6 139.6;" xml:space="preserve">
<style type="text/css">
	.st0{fill:#CA514D;}
	.st1{opacity:0.1;fill:#222221;}
	.st2{fill:#D5BF8F;}
	.st3{fill:none;stroke:#4C4A4A;stroke-width:2;stroke-miterlimit:10;}
	.st4{fill:#5E3F1F;}
	.st5{opacity:0.2;fill:#222221;}
</style>
<g id="XMLID_163_">
	<path id="XMLID_210_" class="st0" d="M64,1.7c1.6-1.5,4.2-1.5,5.7,0L81.4,13c1.6,1.5,4.7,2.5,6.8,2.2l16-2.3
		c2.2-0.3,4.3,1.2,4.7,3.4l2.8,16c0.4,2.2,2.3,4.8,4.2,5.8l14.3,7.6c1.9,1,2.7,3.5,1.8,5.5L125,65.7c-1,2-1,5.2,0,7.2l7.1,14.6
		c1,2,0.2,4.4-1.8,5.5l-14.3,7.6c-1.9,1-3.8,3.6-4.2,5.8l-2.8,16c-0.4,2.2-2.5,3.7-4.7,3.4l-16-2.3c-2.2-0.3-5.3,0.7-6.8,2.2
		l-11.6,11.3c-1.6,1.5-4.2,1.5-5.7,0l-11.6-11.3c-1.6-1.5-4.7-2.5-6.8-2.2l-16,2.3c-2.2,0.3-4.3-1.2-4.7-3.4l-2.8-16
		c-0.4-2.2-2.3-4.8-4.2-5.8L3.5,92.9c-1.9-1-2.7-3.5-1.8-5.5l7.1-14.6c1-2,1-5.2,0-7.2L1.8,51.1c-1-2-0.2-4.4,1.8-5.5l14.3-7.6
		c1.9-1,3.8-3.6,4.2-5.8l2.8-16c0.4-2.2,2.5-3.7,4.7-3.4l16,2.3c2.2,0.3,5.3-0.7,6.8-2.2L64,1.7z"/>
</g>
<g id="XMLID_157_">
	<path id="XMLID_80_" class="st1" d="M124.8,66L124.8,66L90.3,31.5L49.1,80.1v27.1l25.2,25.2l6.9-6.7c1.9-1.9,4.6-2.7,7.3-2.4
		l15.9,2.2c2.2,0.3,4.2-1.2,4.6-3.3l2.7-15.6c0.5-2.8,2.2-5.2,4.7-6.5l14-7.5c1.9-1,2.6-3.3,1.7-5.2l-7.4-15.1
		C123.8,70.5,123.8,68.1,124.8,66z"/>
</g>
<path id="XMLID_155_" class="st2" d="M100.8,63.5c0,26.2-15,52.5-33.5,52.5S33.7,89.7,33.7,63.5s15-39.9,33.5-39.9
	S100.8,37.3,100.8,63.5z"/>
<path id="XMLID_136_" class="st2" d="M107.5,68.5c0,5.3-3,10.5-6.7,10.5c-3.7,0-6.7-5.3-6.7-10.5s3-8,6.7-8
	C104.5,60.5,107.5,63.3,107.5,68.5z"/>
<path id="XMLID_135_" class="st2" d="M40.4,68.5c0,5.3-3,10.5-6.7,10.5S27,73.8,27,68.5s3-8,6.7-8S40.4,63.3,40.4,68.5z"/>
<circle id="XMLID_134_" class="st3" cx="54.6" cy="59.8" r="8.1"/>
<circle id="XMLID_132_" class="st3" cx="80.2" cy="59.8" r="8.1"/>
<path id="XMLID_128_" class="st3" d="M62.7,59.8c0,0,2-1.2,4.7-1.2c2.8,0,4.7,1.2,4.7,1.2"/>
<line id="XMLID_131_" class="st3" x1="33.9" y1="60" x2="46.5" y2="59.8"/>
<line id="XMLID_130_" class="st3" x1="88.3" y1="59.8" x2="100.5" y2="60"/>
<path id="XMLID_124_" class="st4" d="M67.2,38.4c0,0-6.2-2.2-11.1-4.8c-3.3-1.8-8.7-2.2-10.7-0.7c-4.9,3.6-6.8,9.9-8.4,14.7
	c-1.4,4.3-0.4,13.1,0.1,16.9c0.1,0.9-0.7,1.6-1.5,1.3l-0.4-0.1c-0.8-0.2-1.4-0.9-1.4-1.8c-0.2-2.7-0.5-8.6-0.1-11.1
	c0.5-3.3,1.9-8.6,3.5-11.7c1.6-3.1,5.3-8.4,8.2-10.8s5.6-4,9.5-5.8s12-2.2,12-2.2h0.6c0,0,8.1,0.3,12,2.2s6.7,3.4,9.5,5.8
	c2.8,2.4,6.6,7.7,8.2,10.8c1.6,3.1,3,8.3,3.5,11.7c0.4,2.5,0,8.7-0.2,11.4c-0.1,0.8-0.6,1.5-1.5,1.8l-0.2,0.1
	c-0.8,0.2-1.6-0.5-1.5-1.3c0.5-3.8,1.5-12.8,0.1-17.2c-1.6-4.9-3.5-11.1-8.4-14.7c-2-1.5-7.4-1.1-10.7,0.7
	C73.5,36.3,67.2,38.4,67.2,38.4L67.2,38.4z"/>
<path id="XMLID_123_" class="st0" d="M66.9,103.9c7.9,0,14.3-8.3,14.3-18.6H52.6C52.6,95.5,59,103.9,66.9,103.9z"/>
<g id="XMLID_66_">
	<path id="XMLID_78_" class="st5" d="M66.9,103.9c7.9,0,14.3-8.3,14.3-18.6H52.6C52.6,95.5,59,103.9,66.9,103.9z"/>
</g>
</svg>
