<svg id="Layer_1" xmlns="http://www.w3.org/2000/svg" viewBox="0 0 1285 264.5"><style>.st0{fill:#fff}</style><path id="XMLID_545_" class="st0" d="M341.6 80.2c2.2-10.6 1.9-21.9-1.5-33C329.3 12 292-7.8 256.8 2.9c-27.2 8.3-45.2 32.4-47.1 59.2-12.5-5.6-26.9-6.8-40.9-2.5-30.9 9.4-48.4 42.2-38.9 73.1s42.2 48.4 73.1 38.9c22.1-6.7 37.3-25.4 40.7-46.7 15.3 8.6 33.9 11.1 52 5.6.5-.2 1-.3 1.5-.5.2 4.1.8 8.2 2.1 12.2 7.8 25.4 34.6 39.7 60.1 32 25.4-7.8 39.7-34.6 32-60.1-6.8-21.9-27.8-35.6-49.8-33.9z"/><path id="XMLID_541_" class="st0" d="M1105.8 168.4c2.2-10.6 1.9-21.9-1.5-33-10.8-35.2-48-55.1-83.3-44.3-27.2 8.3-45.2 32.4-47.1 59.2-12.5-5.6-26.9-6.8-40.9-2.5-30.9 9.4-48.4 42.2-38.9 73.1s42.2 48.4 73.1 38.9c22.1-6.7 37.3-25.4 40.7-46.7 15.3 8.6 33.9 11.1 52 5.6.5-.2 1-.3 1.5-.5.2 4.1.8 8.2 2.1 12.2 7.8 25.4 34.6 39.7 60.1 32s39.7-34.6 32-60.1c-6.7-22-27.8-35.6-49.8-33.9z"/><path id="XMLID_262_" class="st0" d="M687.4 133.9c-7.1 0-13.9 1.9-19.7 5.1-1.2-5.2-3.2-10.1-5.7-14.6 11.6-2.5 20.3-12.8 20.3-25.1 0-14.2-11.5-25.7-25.7-25.7-13.6 0-24.8 10.6-25.6 24-6.4-2.4-13.4-3.7-20.7-3.7-32.6 0-59 26.5-59 59.1s26.4 59.1 59 59.1c16.8 0 31.9-7 42.6-18.2 7 11.6 19.8 19.4 34.4 19.4 22.1 0 40-17.7 40-39.6.1-22-17.8-39.8-39.9-39.8z"/></svg>