<svg id="Layer_1" xmlns="http://www.w3.org/2000/svg" viewBox="0 0 132.6 139.6"><style>.st0{fill:#ca514d}.st1{opacity:.1;fill:#222221}.st2{fill:#d5bf8f}.st3{fill:none;stroke:#4c4a4a;stroke-width:2;stroke-miterlimit:10}.st4{fill:#5e3f1f}.st5{opacity:.2;fill:#222221}</style><g id="XMLID_163_"><path id="XMLID_210_" class="st0" d="M64 1.7c1.6-1.5 4.2-1.5 5.7 0L81.4 13c1.6 1.5 4.7 2.5 6.8 2.2l16-2.3c2.2-.3 4.3 1.2 4.7 3.4l2.8 16c.4 2.2 2.3 4.8 4.2 5.8l14.3 7.6c1.9 1 2.7 3.5 1.8 5.5l-7 14.5c-1 2-1 5.2 0 7.2l7.1 14.6c1 2 .2 4.4-1.8 5.5l-14.3 7.6c-1.9 1-3.8 3.6-4.2 5.8l-2.8 16c-.4 2.2-2.5 3.7-4.7 3.4l-16-2.3c-2.2-.3-5.3.7-6.8 2.2L69.9 137c-1.6 1.5-4.2 1.5-5.7 0l-11.6-11.3c-1.6-1.5-4.7-2.5-6.8-2.2l-16 2.3c-2.2.3-4.3-1.2-4.7-3.4l-2.8-16c-.4-2.2-2.3-4.8-4.2-5.8L3.5 92.9c-1.9-1-2.7-3.5-1.8-5.5l7.1-14.6c1-2 1-5.2 0-7.2l-7-14.5c-1-2-.2-4.4 1.8-5.5L17.9 38c1.9-1 3.8-3.6 4.2-5.8l2.8-16c.4-2.2 2.5-3.7 4.7-3.4l16 2.3c2.2.3 5.3-.7 6.8-2.2L64 1.7z"/></g><g id="XMLID_157_"><path id="XMLID_80_" class="st1" d="M124.8 66L90.3 31.5 49.1 80.1v27.1l25.2 25.2 6.9-6.7c1.9-1.9 4.6-2.7 7.3-2.4l15.9 2.2c2.2.3 4.2-1.2 4.6-3.3l2.7-15.6c.5-2.8 2.2-5.2 4.7-6.5l14-7.5c1.9-1 2.6-3.3 1.7-5.2l-7.4-15.1c-.9-1.8-.9-4.2.1-6.3z"/></g><path id="XMLID_155_" class="st2" d="M100.8 63.5c0 26.2-15 52.5-33.5 52.5S33.7 89.7 33.7 63.5s15-39.9 33.5-39.9 33.6 13.7 33.6 39.9z"/><path id="XMLID_136_" class="st2" d="M107.5 68.5c0 5.3-3 10.5-6.7 10.5s-6.7-5.3-6.7-10.5 3-8 6.7-8 6.7 2.8 6.7 8z"/><path id="XMLID_135_" class="st2" d="M40.4 68.5c0 5.3-3 10.5-6.7 10.5S27 73.8 27 68.5s3-8 6.7-8 6.7 2.8 6.7 8z"/><circle id="XMLID_134_" class="st3" cx="54.6" cy="59.8" r="8.1"/><circle id="XMLID_132_" class="st3" cx="80.2" cy="59.8" r="8.1"/><path id="XMLID_128_" class="st3" d="M62.7 59.8s2-1.2 4.7-1.2c2.8 0 4.7 1.2 4.7 1.2"/><path id="XMLID_131_" class="st3" d="M33.9 60l12.6-.2"/><path id="XMLID_130_" class="st3" d="M88.3 59.8l12.2.2"/><path id="XMLID_124_" class="st4" d="M67.2 38.4s-6.2-2.2-11.1-4.8c-3.3-1.8-8.7-2.2-10.7-.7-4.9 3.6-6.8 9.9-8.4 14.7-1.4 4.3-.4 13.1.1 16.9.1.9-.7 1.6-1.5 1.3l-.4-.1c-.8-.2-1.4-.9-1.4-1.8-.2-2.7-.5-8.6-.1-11.1.5-3.3 1.9-8.6 3.5-11.7 1.6-3.1 5.3-8.4 8.2-10.8s5.6-4 9.5-5.8 12-2.2 12-2.2h.6s8.1.3 12 2.2 6.7 3.4 9.5 5.8 6.6 7.7 8.2 10.8c1.6 3.1 3 8.3 3.5 11.7.4 2.5 0 8.7-.2 11.4-.1.8-.6 1.5-1.5 1.8l-.2.1c-.8.2-1.6-.5-1.5-1.3.5-3.8 1.5-12.8.1-17.2-1.6-4.9-3.5-11.1-8.4-14.7-2-1.5-7.4-1.1-10.7.7-4.8 2.7-11.1 4.8-11.1 4.8z"/><path id="XMLID_123_" class="st0" d="M66.9 103.9c7.9 0 14.3-8.3 14.3-18.6H52.6c0 10.2 6.4 18.6 14.3 18.6z"/><g id="XMLID_66_"><path id="XMLID_78_" class="st5" d="M66.9 103.9c7.9 0 14.3-8.3 14.3-18.6H52.6c0 10.2 6.4 18.6 14.3 18.6z"/></g></svg>