<svg id="Layer_1" xmlns="http://www.w3.org/2000/svg" viewBox="0 0 1285 548.1"><style>.st0{fill:#ca4f4c}</style><path id="XMLID_1002_" class="st0" d="M1158.8 237.5v-15.8l43-15c2.7-1 3-4.7.5-6.1l-36.6-20 15.2-8.2c2.2-1.2 2.3-4.2.3-5.6l-28.9-20.5 13.2-3.7c2.3-.6 3.2-3.4 1.7-5.2l-27-35c-1.5-2-4.6-1.6-5.7.7l-17.9 40.4c-1 2.2.6 4.6 2.9 4.7l13.7.4-23.2 26.8c-1.6 1.9-.7 4.8 1.7 5.4l16.7 4.4-24.6 22.5-56.2-29 26.8-15.4c3.8-2.2 4-7.6.4-10.1l-52.6-35.4 23.5-7.1c4-1.2 5.5-6.1 2.9-9.4L999 40c-2.8-3.5-8.4-2.7-10.1 1.5l-30.2 72.9c-1.6 3.9 1.2 8.2 5.5 8.2l24.5.1-40.3 48.9c-2.8 3.4-1.1 8.5 3.2 9.6l30.1 7.1-53.9 51.7c-3.7 3.6-1.4 9.8 3.7 10.2l76.4-18.5 10.4 32.8c-100.2 22.4-181.8 46.1-181.8 46.1S720 290.2 586.8 274.8L573 231.2l49.5-35.4c3.3-2.3 2.2-7.4-1.7-8.3L564 175.2l17.1-16.9c2.4-2.4 1.5-6.5-1.8-7.6l-46.6-16 16.2-10.1c2.8-1.7 2.9-5.7.3-7.7l-49.7-36.1c-2.8-2.1-6.8-.3-7.3 3.1l-8.1 60.9c-.4 3.3 2.6 5.9 5.7 5.1l18.5-4.8-20.5 44.8c-1.4 3.1.9 6.6 4.3 6.5l24-.7-16.8 27.6-52.7-38.9 28.9-10.9c4.1-1.6 5.2-6.9 2-9.9l-46.3-43.3 24.3-3.3c4.2-.6 6.4-5.2 4.3-8.8l-39.4-68.4c-2.2-3.9-7.8-4-10.2-.1L369 106.9c-2.2 3.6-.1 8.3 4.1 9l24.2 4-47.6 41.9c-3.3 2.9-2.4 8.3 1.7 9.9l28.6 11.8-27.1 18.7-43.3-16.6 19.4-14.1c2.8-2 2.5-6.2-.6-7.8l-43.7-22.9 17.6-7.5c3-1.3 3.8-5.2 1.4-7.5l-43.6-43.2c-2.5-2.5-6.7-1.4-7.7 2l-17.2 59c-.9 3.1 1.6 6.2 4.9 5.9l19-2-27 41.2c-1.9 2.9-.1 6.7 3.3 7.1l23.9 2.9-15.9 19-51-51.2 30.2-6.4c4.3-.9 6.2-6 3.4-9.5l-39.2-49.8 24.5.4c4.2.1 7.2-4.2 5.6-8.1l-28.6-73.6c-1.6-4.2-7.2-5.1-10.1-1.7L127.3 78c-2.7 3.2-1.3 8.2 2.7 9.5l23.3 7.7-53.3 34.2c-3.7 2.4-3.6 7.8.1 10.1l26.4 16L59.4 188c-4.6 2.3-4.4 8.9.4 10.8l78 6.9-14.8 70c-72 11-118 22.9-118 22.9v192l407.7 57.5 799.5-96 72.8 38.5V225.9c-36.6 0-80.5 4.5-126.2 11.6zm-668.1.3l-4.5 7.5c-2.1 3.4.9 7.7 4.8 6.9l56.5-10.9 9.6 30.1c-43.7-4.7-88.4-8.6-130.7-11l1.7-29.4 62.6 6.8zm-325.4-27.3l69.5 17.4-12.8 15.3c-2.6 3.1-.3 7.7 3.7 7.6l57.5-20 8.7 28.6c-51 2.1-98.5 6.9-139.6 12.3l13-61.2zm148 48.1l-10.1-33.2 21.6-3.7-6.2 4.3c-4.2 2.9-3 9.5 2 10.7l79.1-6.2-1.7 28.7c-17-.7-33.4-1-49-1-12-.1-23.9 0-35.7.4zm724.1-31l76.1-3.9c1.6-.6 2.7-1.7 3.3-3l25.1 2.4v17.1c-31.6 5.2-63.8 11.4-94.8 18l-9.7-30.6z"/></svg>